
<svg width="173" height="30" viewBox="0 0 173 30" fill="none" xmlns="http://www.w3.org/2000/svg">
<g clip-path="url(#clip0_74_5684)">
<path d="M12.8801 8.34358C13.29 8.34358 13.6222 7.97968 13.6222 7.5308C13.6222 7.08192 13.29 6.71802 12.8801 6.71802C12.4703 6.71802 12.1381 7.08192 12.1381 7.5308C12.1381 7.97968 12.4703 8.34358 12.8801 8.34358Z" fill="black"/>
<path d="M21.4016 8.34358C21.8115 8.34358 22.1437 7.97968 22.1437 7.5308C22.1437 7.08192 21.8115 6.71802 21.4016 6.71802C20.9918 6.71802 20.6595 7.08192 20.6595 7.5308C20.6595 7.97968 20.9918 8.34358 21.4016 8.34358Z" fill="black"/>
<path d="M29.9231 8.34358C30.3329 8.34358 30.6652 7.97968 30.6652 7.5308C30.6652 7.08192 30.3329 6.71802 29.9231 6.71802C29.5133 6.71802 29.181 7.08192 29.181 7.5308C29.181 7.97968 29.5133 8.34358 29.9231 8.34358Z" fill="black"/>
<path d="M38.4447 8.34358C38.8545 8.34358 39.1868 7.97968 39.1868 7.5308C39.1868 7.08192 38.8545 6.71802 38.4447 6.71802C38.0349 6.71802 37.7026 7.08192 37.7026 7.5308C37.7026 7.97968 38.0349 8.34358 38.4447 8.34358Z" fill="black"/>
<path d="M46.9662 8.34358C47.376 8.34358 47.7083 7.97968 47.7083 7.5308C47.7083 7.08192 47.376 6.71802 46.9662 6.71802C46.5564 6.71802 46.2241 7.08192 46.2241 7.5308C46.2241 7.97968 46.5564 8.34358 46.9662 8.34358Z" fill="black"/>
<path d="M55.4877 8.34358C55.8975 8.34358 56.2298 7.97968 56.2298 7.5308C56.2298 7.08192 55.8975 6.71802 55.4877 6.71802C55.0778 6.71802 54.7456 7.08192 54.7456 7.5308C54.7456 7.97968 55.0778 8.34358 55.4877 8.34358Z" fill="black"/>
<path d="M64.0154 8.34358C64.4252 8.34358 64.7575 7.97968 64.7575 7.5308C64.7575 7.08192 64.4252 6.71802 64.0154 6.71802C63.6056 6.71802 63.2733 7.08192 63.2733 7.5308C63.2733 7.97968 63.6056 8.34358 64.0154 8.34358Z" fill="black"/>
<path d="M72.5369 8.34358C72.9467 8.34358 73.279 7.97968 73.279 7.5308C73.279 7.08192 72.9467 6.71802 72.5369 6.71802C72.127 6.71802 71.7948 7.08192 71.7948 7.5308C71.7948 7.97968 72.127 8.34358 72.5369 8.34358Z" fill="black"/>
<path d="M81.8004 7.5308C81.8004 7.97782 81.4665 8.34358 81.0584 8.34358C80.6502 8.34358 80.3163 7.97782 80.3163 7.5308C80.3163 7.08377 80.6502 6.71802 81.0584 6.71802C81.4665 6.72479 81.8004 7.08377 81.8004 7.5308Z" fill="black"/>
<path d="M89.5799 8.34358C89.9897 8.34358 90.3219 7.97968 90.3219 7.5308C90.3219 7.08192 89.9897 6.71802 89.5799 6.71802C89.17 6.71802 88.8378 7.08192 88.8378 7.5308C88.8378 7.97968 89.17 8.34358 89.5799 8.34358Z" fill="black"/>
<path d="M98.1014 8.34358C98.5113 8.34358 98.8435 7.97968 98.8435 7.5308C98.8435 7.08192 98.5113 6.71802 98.1014 6.71802C97.6916 6.71802 97.3594 7.08192 97.3594 7.5308C97.3594 7.97968 97.6916 8.34358 98.1014 8.34358Z" fill="black"/>
<path d="M106.623 8.34358C107.033 8.34358 107.365 7.97968 107.365 7.5308C107.365 7.08192 107.033 6.71802 106.623 6.71802C106.213 6.71802 105.881 7.08192 105.881 7.5308C105.881 7.97968 106.213 8.34358 106.623 8.34358Z" fill="black"/>
<path d="M115.151 8.34358C115.56 8.34358 115.893 7.97968 115.893 7.5308C115.893 7.08192 115.56 6.71802 115.151 6.71802C114.741 6.71802 114.408 7.08192 114.408 7.5308C114.408 7.97968 114.741 8.34358 115.151 8.34358Z" fill="black"/>
<path d="M123.672 8.34358C124.082 8.34358 124.414 7.97968 124.414 7.5308C124.414 7.08192 124.082 6.71802 123.672 6.71802C123.262 6.71802 122.93 7.08192 122.93 7.5308C122.93 7.97968 123.262 8.34358 123.672 8.34358Z" fill="black"/>
<path d="M132.193 8.34358C132.603 8.34358 132.936 7.97968 132.936 7.5308C132.936 7.08192 132.603 6.71802 132.193 6.71802C131.784 6.71802 131.451 7.08192 131.451 7.5308C131.451 7.97968 131.784 8.34358 132.193 8.34358Z" fill="black"/>
<path d="M140.715 8.34358C141.125 8.34358 141.457 7.97968 141.457 7.5308C141.457 7.08192 141.125 6.71802 140.715 6.71802C140.305 6.71802 139.973 7.08192 139.973 7.5308C139.973 7.97968 140.305 8.34358 140.715 8.34358Z" fill="black"/>
<path d="M149.237 8.34358C149.646 8.34358 149.979 7.97968 149.979 7.5308C149.979 7.08192 149.646 6.71802 149.237 6.71802C148.827 6.71802 148.495 7.08192 148.495 7.5308C148.495 7.97968 148.827 8.34358 149.237 8.34358Z" fill="black"/>
<path d="M157.758 8.34358C158.168 8.34358 158.5 7.97968 158.5 7.5308C158.5 7.08192 158.168 6.71802 157.758 6.71802C157.348 6.71802 157.016 7.08192 157.016 7.5308C157.016 7.97968 157.348 8.34358 157.758 8.34358Z" fill="black"/>
<path d="M167.022 7.5308C167.022 7.97782 166.688 8.34358 166.28 8.34358C165.871 8.34358 165.537 7.97782 165.537 7.5308C165.537 7.08377 165.871 6.71802 166.28 6.71802C166.694 6.72479 167.022 7.08377 167.022 7.5308Z" fill="black"/>
<path d="M12.8801 17.4803C13.29 17.4803 13.6222 17.1164 13.6222 16.6675C13.6222 16.2186 13.29 15.8547 12.8801 15.8547C12.4703 15.8547 12.1381 16.2186 12.1381 16.6675C12.1381 17.1164 12.4703 17.4803 12.8801 17.4803Z" fill="black"/>
<path d="M21.4016 17.4803C21.8115 17.4803 22.1437 17.1164 22.1437 16.6675C22.1437 16.2186 21.8115 15.8547 21.4016 15.8547C20.9918 15.8547 20.6595 16.2186 20.6595 16.6675C20.6595 17.1164 20.9918 17.4803 21.4016 17.4803Z" fill="black"/>
<path d="M29.9231 17.4803C30.3329 17.4803 30.6652 17.1164 30.6652 16.6675C30.6652 16.2186 30.3329 15.8547 29.9231 15.8547C29.5133 15.8547 29.181 16.2186 29.181 16.6675C29.181 17.1164 29.5133 17.4803 29.9231 17.4803Z" fill="black"/>
<path d="M38.4447 17.4803C38.8545 17.4803 39.1868 17.1164 39.1868 16.6675C39.1868 16.2186 38.8545 15.8547 38.4447 15.8547C38.0349 15.8547 37.7026 16.2186 37.7026 16.6675C37.7026 17.1164 38.0349 17.4803 38.4447 17.4803Z" fill="black"/>
<path d="M46.9662 17.4803C47.376 17.4803 47.7083 17.1164 47.7083 16.6675C47.7083 16.2186 47.376 15.8547 46.9662 15.8547C46.5564 15.8547 46.2241 16.2186 46.2241 16.6675C46.2241 17.1164 46.5564 17.4803 46.9662 17.4803Z" fill="black"/>
<path d="M55.4877 17.4803C55.8975 17.4803 56.2298 17.1164 56.2298 16.6675C56.2298 16.2186 55.8975 15.8547 55.4877 15.8547C55.0778 15.8547 54.7456 16.2186 54.7456 16.6675C54.7456 17.1164 55.0778 17.4803 55.4877 17.4803Z" fill="black"/>
<path d="M64.0154 17.4803C64.4252 17.4803 64.7575 17.1164 64.7575 16.6675C64.7575 16.2186 64.4252 15.8547 64.0154 15.8547C63.6056 15.8547 63.2733 16.2186 63.2733 16.6675C63.2733 17.1164 63.6056 17.4803 64.0154 17.4803Z" fill="black"/>
<path d="M72.5369 17.4803C72.9467 17.4803 73.279 17.1164 73.279 16.6675C73.279 16.2186 72.9467 15.8547 72.5369 15.8547C72.127 15.8547 71.7948 16.2186 71.7948 16.6675C71.7948 17.1164 72.127 17.4803 72.5369 17.4803Z" fill="black"/>
<path d="M81.8004 16.6675C81.8004 17.1145 81.4665 17.4803 81.0584 17.4803C80.6502 17.4803 80.3163 17.1145 80.3163 16.6675C80.3163 16.2205 80.6502 15.8547 81.0584 15.8547C81.4665 15.8547 81.8004 16.2137 81.8004 16.6675Z" fill="black"/>
<path d="M89.5799 17.4803C89.9897 17.4803 90.3219 17.1164 90.3219 16.6675C90.3219 16.2186 89.9897 15.8547 89.5799 15.8547C89.17 15.8547 88.8378 16.2186 88.8378 16.6675C88.8378 17.1164 89.17 17.4803 89.5799 17.4803Z" fill="black"/>
<path d="M98.1014 17.4803C98.5113 17.4803 98.8435 17.1164 98.8435 16.6675C98.8435 16.2186 98.5113 15.8547 98.1014 15.8547C97.6916 15.8547 97.3594 16.2186 97.3594 16.6675C97.3594 17.1164 97.6916 17.4803 98.1014 17.4803Z" fill="black"/>
<path d="M106.623 17.4803C107.033 17.4803 107.365 17.1164 107.365 16.6675C107.365 16.2186 107.033 15.8547 106.623 15.8547C106.213 15.8547 105.881 16.2186 105.881 16.6675C105.881 17.1164 106.213 17.4803 106.623 17.4803Z" fill="black"/>
<path d="M115.151 17.4803C115.56 17.4803 115.893 17.1164 115.893 16.6675C115.893 16.2186 115.56 15.8547 115.151 15.8547C114.741 15.8547 114.408 16.2186 114.408 16.6675C114.408 17.1164 114.741 17.4803 115.151 17.4803Z" fill="black"/>
<path d="M123.672 17.4803C124.082 17.4803 124.414 17.1164 124.414 16.6675C124.414 16.2186 124.082 15.8547 123.672 15.8547C123.262 15.8547 122.93 16.2186 122.93 16.6675C122.93 17.1164 123.262 17.4803 123.672 17.4803Z" fill="black"/>
<path d="M132.193 17.4803C132.603 17.4803 132.936 17.1164 132.936 16.6675C132.936 16.2186 132.603 15.8547 132.193 15.8547C131.784 15.8547 131.451 16.2186 131.451 16.6675C131.451 17.1164 131.784 17.4803 132.193 17.4803Z" fill="black"/>
<path d="M140.715 17.4803C141.125 17.4803 141.457 17.1164 141.457 16.6675C141.457 16.2186 141.125 15.8547 140.715 15.8547C140.305 15.8547 139.973 16.2186 139.973 16.6675C139.973 17.1164 140.305 17.4803 140.715 17.4803Z" fill="black"/>
<path d="M149.237 17.4803C149.646 17.4803 149.979 17.1164 149.979 16.6675C149.979 16.2186 149.646 15.8547 149.237 15.8547C148.827 15.8547 148.495 16.2186 148.495 16.6675C148.495 17.1164 148.827 17.4803 149.237 17.4803Z" fill="black"/>
<path d="M157.758 17.4803C158.168 17.4803 158.5 17.1164 158.5 16.6675C158.5 16.2186 158.168 15.8547 157.758 15.8547C157.348 15.8547 157.016 16.2186 157.016 16.6675C157.016 17.1164 157.348 17.4803 157.758 17.4803Z" fill="black"/>
<path d="M167.022 16.6675C167.022 17.1145 166.688 17.4803 166.28 17.4803C165.871 17.4803 165.537 17.1145 165.537 16.6675C165.537 16.2205 165.871 15.8547 166.28 15.8547C166.694 15.8547 167.022 16.2137 167.022 16.6675Z" fill="black"/>
<path d="M12.8801 26.6104C13.29 26.6104 13.6222 26.2465 13.6222 25.7976C13.6222 25.3488 13.29 24.9849 12.8801 24.9849C12.4703 24.9849 12.1381 25.3488 12.1381 25.7976C12.1381 26.2465 12.4703 26.6104 12.8801 26.6104Z" fill="black"/>
<path d="M21.4016 26.6104C21.8115 26.6104 22.1437 26.2465 22.1437 25.7976C22.1437 25.3488 21.8115 24.9849 21.4016 24.9849C20.9918 24.9849 20.6595 25.3488 20.6595 25.7976C20.6595 26.2465 20.9918 26.6104 21.4016 26.6104Z" fill="black"/>
<path d="M29.9231 26.6104C30.3329 26.6104 30.6652 26.2465 30.6652 25.7976C30.6652 25.3488 30.3329 24.9849 29.9231 24.9849C29.5133 24.9849 29.181 25.3488 29.181 25.7976C29.181 26.2465 29.5133 26.6104 29.9231 26.6104Z" fill="black"/>
<path d="M38.4447 26.6104C38.8545 26.6104 39.1868 26.2465 39.1868 25.7976C39.1868 25.3488 38.8545 24.9849 38.4447 24.9849C38.0349 24.9849 37.7026 25.3488 37.7026 25.7976C37.7026 26.2465 38.0349 26.6104 38.4447 26.6104Z" fill="black"/>
<path d="M46.9662 26.6104C47.376 26.6104 47.7083 26.2465 47.7083 25.7976C47.7083 25.3488 47.376 24.9849 46.9662 24.9849C46.5564 24.9849 46.2241 25.3488 46.2241 25.7976C46.2241 26.2465 46.5564 26.6104 46.9662 26.6104Z" fill="black"/>
<path d="M55.4877 26.6104C55.8975 26.6104 56.2298 26.2465 56.2298 25.7976C56.2298 25.3488 55.8975 24.9849 55.4877 24.9849C55.0778 24.9849 54.7456 25.3488 54.7456 25.7976C54.7456 26.2465 55.0778 26.6104 55.4877 26.6104Z" fill="black"/>
<path d="M64.0154 26.6104C64.4252 26.6104 64.7575 26.2465 64.7575 25.7976C64.7575 25.3488 64.4252 24.9849 64.0154 24.9849C63.6056 24.9849 63.2733 25.3488 63.2733 25.7976C63.2733 26.2465 63.6056 26.6104 64.0154 26.6104Z" fill="black"/>
<path d="M72.5369 26.6104C72.9467 26.6104 73.279 26.2465 73.279 25.7976C73.279 25.3488 72.9467 24.9849 72.5369 24.9849C72.127 24.9849 71.7948 25.3488 71.7948 25.7976C71.7948 26.2465 72.127 26.6104 72.5369 26.6104Z" fill="black"/>
<path d="M81.8004 25.7976C81.8004 26.2447 81.4665 26.6104 81.0584 26.6104C80.6502 26.6104 80.3163 26.2447 80.3163 25.7976C80.3163 25.3506 80.6502 24.9849 81.0584 24.9849C81.4665 24.9849 81.8004 25.3506 81.8004 25.7976Z" fill="black"/>
<path d="M89.5799 26.6104C89.9897 26.6104 90.3219 26.2465 90.3219 25.7976C90.3219 25.3488 89.9897 24.9849 89.5799 24.9849C89.17 24.9849 88.8378 25.3488 88.8378 25.7976C88.8378 26.2465 89.17 26.6104 89.5799 26.6104Z" fill="black"/>
<path d="M98.1014 26.6104C98.5113 26.6104 98.8435 26.2465 98.8435 25.7976C98.8435 25.3488 98.5113 24.9849 98.1014 24.9849C97.6916 24.9849 97.3594 25.3488 97.3594 25.7976C97.3594 26.2465 97.6916 26.6104 98.1014 26.6104Z" fill="black"/>
<path d="M106.623 26.6104C107.033 26.6104 107.365 26.2465 107.365 25.7976C107.365 25.3488 107.033 24.9849 106.623 24.9849C106.213 24.9849 105.881 25.3488 105.881 25.7976C105.881 26.2465 106.213 26.6104 106.623 26.6104Z" fill="black"/>
<path d="M115.151 26.6104C115.56 26.6104 115.893 26.2465 115.893 25.7976C115.893 25.3488 115.56 24.9849 115.151 24.9849C114.741 24.9849 114.408 25.3488 114.408 25.7976C114.408 26.2465 114.741 26.6104 115.151 26.6104Z" fill="black"/>
<path d="M123.672 26.6104C124.082 26.6104 124.414 26.2465 124.414 25.7976C124.414 25.3488 124.082 24.9849 123.672 24.9849C123.262 24.9849 122.93 25.3488 122.93 25.7976C122.93 26.2465 123.262 26.6104 123.672 26.6104Z" fill="black"/>
<path d="M132.193 26.6104C132.603 26.6104 132.936 26.2465 132.936 25.7976C132.936 25.3488 132.603 24.9849 132.193 24.9849C131.784 24.9849 131.451 25.3488 131.451 25.7976C131.451 26.2465 131.784 26.6104 132.193 26.6104Z" fill="black"/>
<path d="M140.715 26.6104C141.125 26.6104 141.457 26.2465 141.457 25.7976C141.457 25.3488 141.125 24.9849 140.715 24.9849C140.305 24.9849 139.973 25.3488 139.973 25.7976C139.973 26.2465 140.305 26.6104 140.715 26.6104Z" fill="black"/>
<path d="M149.237 26.6104C149.646 26.6104 149.979 26.2465 149.979 25.7976C149.979 25.3488 149.646 24.9849 149.237 24.9849C148.827 24.9849 148.495 25.3488 148.495 25.7976C148.495 26.2465 148.827 26.6104 149.237 26.6104Z" fill="black"/>
<path d="M157.758 26.6104C158.168 26.6104 158.5 26.2465 158.5 25.7976C158.5 25.3488 158.168 24.9849 157.758 24.9849C157.348 24.9849 157.016 25.3488 157.016 25.7976C157.016 26.2465 157.348 26.6104 157.758 26.6104Z" fill="black"/>
<path d="M167.022 25.7976C167.022 26.2447 166.688 26.6104 166.28 26.6104C165.871 26.6104 165.537 26.2447 165.537 25.7976C165.537 25.3506 165.871 24.9849 166.28 24.9849C166.694 24.9849 167.022 25.3506 167.022 25.7976Z" fill="black"/>
</g>
<defs>
<clipPath id="clip0_74_5684">
<rect width="171.845" height="28.5" fill="white" transform="translate(0.469604 0.84082)"/>
</clipPath>
</defs>
</svg>